<svg xmlns="http://www.w3.org/2000/svg" viewBox="0 0 512 512" fill="none">
  <g stroke="#1a1a1a" stroke-width="5" stroke-linecap="round" opacity="0.95">
    <path d="M238 258 C 174 236 138 223 78 220"/>
    <path d="M238 266 C 164 264 124 266 58 278"/>
    <path d="M240 274 C 176 296 140 318 88 350"/>

    <path d="M274 258 C 338 236 374 223 434 220"/>
    <path d="M274 266 C 348 264 388 266 454 278"/>
    <path d="M272 274 C 336 296 372 318 424 350"/>
  </g>

  <path d="M256 294C242 280 216 264 216 236C216 214 234 198 256 198C278 198 296 214 296 236C296 264 270 280 256 294Z" fill="#f24f9f"/>
  <path d="M256 285C245 274 225 262 225 238C225 220 239 207 256 207C273 207 287 220 287 238C287 262 267 274 256 285Z" fill="#ff75b6" opacity="0.78"/>
  <ellipse cx="246" cy="223" rx="8" ry="5" fill="#ffd3e8" opacity="0.85"/>
</svg>
